
<svg xmlns="http://www.w3.org/2000/svg" viewBox="0 0 55 55">
	<style type="text/css">
		.st0{fill:url(#SVGID_1_);}
		.st1{fill:none;stroke:url(#SVGID_2_);stroke-width:2;stroke-miterlimit:10;}
		.st2{
			fill:none;
			stroke:#606;
			stroke-width:2;
			stroke-miterlimit:10;
			stroke-linecap: round;
			stroke-linejoin: round;
		}
		.st3{
			fill:none;
			stroke:#fff;
			stroke-width:2;
			stroke-miterlimit:10;
			stroke-linecap: round;
			stroke-linejoin: round;
		}
		.st4{fill:#fff;}
	</style>
	<linearGradient id="SVGID_1_" gradientUnits="userSpaceOnUse" x1="11.814" y1="0.3311" x2="43.186" y2="54.6689">
		<stop  offset="0" style="stop-color:#e3e"/>
		<stop  offset="1" style="stop-color:#a0a"/>
	</linearGradient>
	<linearGradient id="SVGID_2_" gradientUnits="userSpaceOnUse" x1="11.636" y1="55.9772" x2="43.364" y2="1.0228" gradientTransform="matrix(1 0 0 -1 0 56)">
		<stop  offset="0" style="stop-color:#a2a"/>
		<stop  offset="1" style="stop-color:#606"/>
	</linearGradient>
	<path class="st0" d="M46.3,52H8.7C5.6,52,3,49.4,3,46.3V8.7C3,5.6,5.6,3,8.7,3h37.6C49.4,3,52,5.6,52,8.7v37.6 C52,49.4,49.4,52,46.3,52z"/>
	<path class="st1" d="M46.3,52H8.7C5.6,52,3,49.4,3,46.3V8.7C3,5.6,5.6,3,8.7,3h37.6C49.4,3,52,5.6,52,8.7v37.6 C52,49.4,49.4,52,46.3,52z"/>
	<rect class="st2" x="10" y="10" width="34" height="34" rx="1.5"/>
	<line class="st2" x1="18.5" y1="10" x2="18.5" y2="44"/>
	<line class="st2" x1="27" y1="10" x2="27" y2="44"/>
	<line class="st2" x1="35.5" y1="10" x2="35.5" y2="44"/>
	<line class="st2" y1="18.5" x1="10" y2="18.5" x2="44"/>
	<line class="st2" y1="27" x1="10" y2="27" x2="44"/>
	<line class="st2" y1="35.5" x1="10" y2="35.5" x2="44"/>
	<polyline class="st3" points="10,44 18.5,44 18.5,35.5 10,35.5 10,18.5 18.5,18.5 18.5,8"/>
	<polyline class="st3" points="44,44 35.5,44 35.5,35.5 44,35.5 44,18.5 35.5,18.5 35.5,8"/>
	<circle class="st4" cx="10" cy="44" r="2.5"/>
	<circle class="st4" cx="44" cy="44" r="2.5"/>
</svg>
