<svg xmlns="http://www.w3.org/2000/svg" width="0" height="0">

	<defs>
		<filter id="witness-goo">
			<feGaussianBlur in="SourceGraphic" stdDeviation="10" result="blur" />
			<feColorMatrix in="blur" mode="matrix" values="1 0 0 0 0  0 1 0 0 0  0 0 1 0 0  0 0 0 18 -8" result="goo" />
			<feBlend in="SourceGraphic" in2="goo" />
		</filter>
	</defs>

	<svg id="icon-chevron-left" viewBox="0 0 13 13">
		<style type="text/css">
			.st0{fill:#333;}
		</style>
		<polygon class="st0" points="9.2,1.6 8.5,0.8 3.5,5.8 3.5,5.8 2.8,6.5 3.5,7.2 8.5,12.2 9.2,11.4 4.2,6.5 "/>
	</svg>

	<svg id="icon-chevron-right" viewBox="0 0 13 13">
		<style type="text/css">
			.st0{fill:#333;}
		</style>
		<polygon class="st0" points="2.8,11.4 3.5,12.2 8.5,7.2 8.5,7.2 9.2,6.5 8.5,5.8 3.5,0.8 2.8,1.6 7.8,6.5 "/>
	</svg>

	<svg id="icon-lambda" viewBox="0 0 35 35">
		<style type="text/css">
			.st0{fill:#333;}
		</style>
		<rect class="st0" x="13.5" y="4.5" width="8" height="18.8"/>
		<rect class="st0" x="8.6" y="13" transform="matrix(0.5 0.866 -0.866 0.5 25.653 0.2285)" width="8" height="18.8"/>
		<rect class="st0" x="18.4" y="13" transform="matrix(0.5 -0.866 0.866 0.5 -8.153 30.5394)" width="8" height="18.8"/>
	</svg>

</svg>