<svg xmlns="http://www.w3.org/2000/svg" width="0" height="0">

	<defs>
		<filter id="witness-goo">
			<feGaussianBlur in="SourceGraphic" stdDeviation="10" result="blur" />
			<feColorMatrix in="blur" mode="matrix" values="1 0 0 0 0  0 1 0 0 0  0 0 1 0 0  0 0 0 18 -8" result="goo" />
			<feBlend in="SourceGraphic" in2="goo" />
		</filter>
	</defs>

	<svg id="witness-logo" viewBox="0 0 535 133" cache="keep">
		<style type="text/css">
			.st0{fill:#fff;}
		</style>
		<path class="st0" d="M80.22,2c11.39,3.4,17.15,7.69,17.15,12.86c2.07,3.7,3.11,8.72,3.11,15.23c0,10.65-1.48,24.69-4.44,42.14
			c-3.7,14.34-5.47,28.69-5.47,42.88c-3.1,3.11-10.2,7.99-21.29,14.64L50.95,85.1h-0.59l-4.44,21.29c-4.58,3.99-9.02,6.65-13.31,7.99
			c0,0.74-2.07,2.37-6.06,4.88h-0.74c-1.92-1.18-4.58-7.1-7.99-17.6C13.39,90.72,8.36,81.7,2.59,74.75L2,72.83
			c0-3.99,1.77-6.06,5.47-6.06c2.22-1.48,7.1-3.25,14.64-5.47h1.33c0.59,0,3.4,3.99,8.58,12.13c2.51-7.98,3.7-15.67,3.7-23.07
			l-0.74-3.11c10.5-5.77,17.74-8.58,22.03-8.58c1.18,1.92,4.58,11.39,10.35,28.69l3.7,8.58h0.59c1.92-6.06,3.84-16.12,5.47-30.02
			l-0.59-0.59l0.59-2.96c-0.3-14.05-4.14-22.62-11.53-25.73l-7.39,1.18l-1.18-1.77v-1.92c0-5.32,6.06-9.17,18.34-11.53L80.22,2z"/>
		<path class="st0" d="M124.8,57.71c10.25,4.27,17.2,6.47,20.86,6.47c1.59,0,3.78-1.22,6.47-3.54h0.61l0.73,0.61l0.73-0.61h2.93
			c2.81,2.81,4.88,4.27,6.46,4.27c0,0.85,2.2,2.93,6.47,6.47v0.73c-7.2,0.61-10.86,1.59-10.86,2.81v5c0,10.13,1.71,15.13,5.12,15.13
			l14.27-1.46h0.73l2.2,2.2v0.61l-5.86,3.66v-0.73c-34.89,11.47-55.87,17.2-63.07,17.2c-3.54-1.71-5.49-3.17-5.73-4.27
			c1.34-4.27,4.51-6.47,9.39-6.47c0-0.73,4.76-1.95,14.27-3.54l-2.07-27.33h-0.73c-16.23,0-24.4-2.2-24.4-6.47l-1.46-3.54v-1.46
			c0-0.98,1.22-1.46,3.54-1.46c0-0.85,2.68-1.46,7.93-2.07l0.73-0.73h5.73L124.8,57.71z"/>
		<path class="st0" d="M207.36,8.68c2.07,2.07,3.42,5.49,4.15,10.25h-0.73l0.85,0.73l0.49,6.95l1.22,6.95h-0.73l0.73,0.61l0.24,4.27
			l20.01,3.54l5.61,0.24l2.68-0.85c9.39,0.12,14.15,0.73,14.27,1.83l0.61-0.73l2.07-0.12l0.12,1.34c-15.74,2.56-30.5,5.73-44.28,9.39
			l1.46,11.83v0.73l-0.37,2.81l0.98,4.15l30.99-17.57l3.54-0.24c0.98-0.12,1.46,0.61,1.59,1.95c-1.22,2.81-8.17,8.05-20.74,15.49
			c-14.76,12.08-27.33,20.5-37.57,25.13l-3.9-5.37l0.24-6.34l-0.85-3.42l1.22-1.46l-0.73-11.22l-1.83-15.37l-8.42,0.61l-2.81-0.49
			l-2.07,0.85c-14.52-0.12-21.84-2.32-22.2-6.83l-0.85-2.07c5.98-4.27,13.3-8.05,21.71-11.35l12.08,2.68v-0.73
			c-0.37-4.39-1.59-9.03-3.78-13.79l20.86-13.42L207.36,8.68z"/>
		<path class="st0" d="M308.48,31.39c4.51,0.85,6.83,4.27,6.83,10.13c0,19.64,1.83,42.82,5.61,69.66c-2.07,2.32-6.95,5.98-14.76,10.74
			c0,0.85-2.44,1.59-7.32,2.2c-4.51-6.47-13.05-15.49-25.5-27.08c-1.1,6.47-3.42,9.64-6.71,9.64c-1.71,1.59-4.88,3.29-9.64,5
			c-0.61,1.95-3.05,2.93-7.32,2.93h-0.61l-4.51-5.12v-1.22l0.49-0.49l-0.49-1.71c3.42-6.1,5.12-13.42,5.12-22.08V83.5
			c0-4.39-0.73-9.88-2.32-16.47c2.93-1.34,5.25-2.93,6.83-4.51c2.07-0.73,4.64-1.1,7.93-1.1c0-0.85,3.17-2.07,9.64-3.42l19.15,20.37
			V64.2c0-6.83-0.37-12.44-1.1-16.96c-2.93,0-5.98-0.98-9.03-2.93v-1.59c3.05-4.51,8.29-7.81,15.86-9.64L308.48,31.39z"/>
		<path class="st0" d="M336.37,44.68l10.74,2.68l3.29-1.22l6.1,5.98c4.64,1.83,8.66,2.68,12.08,2.68l10.74-1.34v0.73l4.03-1.46
			l0.61,0.73c0-1.46,2.93-2.32,8.66-2.68l1.46,1.34c-0.98,2.56-8.78,6.22-23.54,10.74c-8.91,1.34-13.42,2.68-13.42,4.03
			c0,4.51,4.03,6.71,12.08,6.71l0.73-0.73l3.29,0.73h2.68l3.42-0.73v0.73l26.11-4.64l2.07,0.61v2.07
			c-8.42,4.27-20.25,8.42-35.62,12.69c-7.56,1.34-11.35,3.05-11.35,5.37v1.34l1.34,11.47c8.78-3.66,19.03-8.78,30.74-15.49l6.1-2.07
			l0.73,0.73v1.34c-0.37,3.29-8.66,10.49-24.89,21.47c-8.78,5-17.69,9.39-26.84,13.42l-1.22-1.46l-2.07,1.46l-5.37-24.16
			c-0.85-5-1.71-7.44-2.68-7.44h-13.42L321,88.36V83.6c4.51-4.39,7.81-6.59,10-6.59c-1.71-8.17-4.15-12.2-7.32-12.2
			s-4.76-0.61-4.76-1.95v-1.95c0-3.54,4.51-7.56,13.42-12.08C332.34,47.73,333.68,46.39,336.37,44.68z"/>
		<path class="st0" d="M441.82,26.5c0.31,1.35,2.92,3.96,7.71,7.61l2.5,3.13c0,0.94-5.21,5-15.74,12.19h-1.56
			c-5.63-5.73-10.42-8.65-14.38-8.65h-0.52v2.61c0,6.98,10.74,12.92,32.21,17.93c9.59,1.77,14.38,3.86,14.38,6.04v0.52
			c-6.57,7.4-15.42,14.07-26.58,20.01c-11.36,4.69-22.2,7.09-32.73,7.09c-1.04-1.15-1.56-2.81-1.56-5c2.61-9.9,6.36-14.9,11.26-14.9
			c6.36-2.4,10.53-3.54,12.3-3.54l0.52,0.52V73c-2.08,5.11-3.13,8.86-3.13,11.26c8.86,0,15.74-2.92,20.53-8.65
			c-22.41-5.63-36.37-11.05-42-16.36c-3.44-3.23-5.11-6.67-5.11-10.21c0-4.38,4.38-9.17,13.24-14.38c4.48-0.94,10.11-3.23,16.99-6.67
			L441.82,26.5z"/>
		<path class="st0" d="M504.32,19.66c0.37,1.59,3.42,4.64,9.03,8.91l2.93,3.66c0,1.1-6.1,5.86-18.42,14.27h-1.83
			c-6.59-6.71-12.2-10.13-16.83-10.13h-0.61v3.05c0,8.17,12.57,15.13,37.7,20.98c11.22,2.07,16.83,4.51,16.83,7.08v0.61
			c-7.69,8.66-18.05,16.47-31.11,23.42c-13.3,5.49-25.98,8.3-38.31,8.3c-1.22-1.34-1.83-3.29-1.83-5.86
			c3.05-11.59,7.44-17.44,13.17-17.44c7.44-2.81,12.32-4.15,14.4-4.15l0.61,0.61v1.1c-2.44,5.98-3.66,10.37-3.66,13.18
			c10.37,0,18.42-3.42,24.03-10.13c-26.23-6.59-42.58-12.93-49.16-19.15c-4.03-3.78-5.98-7.81-5.98-11.96
			c0-5.12,5.12-10.74,15.49-16.84c5.25-1.1,11.83-3.78,19.88-7.81L504.32,19.66z"/>
	</svg>

	<svg id="icon-lambda" viewBox="0 0 35 35">
		<style type="text/css">
			.st0{fill:#333;}
		</style>
		<rect class="st0" x="13.5" y="4.5" width="8" height="18.8"/>
		<rect class="st0" x="8.6" y="13" transform="matrix(0.5 0.866 -0.866 0.5 25.653 0.2285)" width="8" height="18.8"/>
		<rect class="st0" x="18.4" y="13" transform="matrix(0.5 -0.866 0.866 0.5 -8.153 30.5394)" width="8" height="18.8"/>
	</svg>

</svg>